/* XPM */
static char *filter[]={
"16 16 2 1",
"# c #000080",
". c None",
"................",
"................",
"...##########...",
"...##########...",
"...##...........",
"...##...........",
"...##...........",
"...#########....",
"...#########....",
"...##...........",
"...##...........",
"...##...........",
"...##...........",
"...##...........",
"................",
"................"};
