/* XPM */
static char *logo[]={
"32 32 3 1",
"# c #000000",
". c None",
"a c #ffffff",
"........................#.......",
".....###...............#a#......",
"....#aaa#.............#aa#......",
"....#aaaa#...........#aaa#......",
".....#aaaa#.........#aaaa#......",
".....#aaaaa#........#aaaa#......",
".....#aaaaa#.......#aaaaa#......",
".....#aaaaaa#......#aaaaa#......",
".....#aaaaaaa######aaaaaaa#.....",
".....#aaaaaaaaaaaaaaaaaaaa#.....",
"....#aaaaaaaaaaaaaaaaaaaaa#.....",
"....#aaaaaaaaaaaaaaaaaaaaaa#....",
"...#aaaaaaaaaaaaaaaaaaaaaaa#....",
"...#aaaaaaaaaaaaaaaaaaaaaaaa#...",
"..#aaaaaa##aaaaaaaaaaa##aaaa#...",
"..#aaaaaa##aaaaaaaaaaa##aaaaa#..",
"..#aaaaaa##aaaaaaaaaaa##aaaaa#..",
"..#aaaaaa##aaaaaaaaaaa##aaaaa#..",
"..#aaaaaaaaaaaaaaaaaaaaaaaaaa#..",
"..####aaaaaaaaaa#aaaaaaaaaaa####",
"##.#aaaaaaaaa#aa#aa#aaaaaaaaa#..",
"...###aaaaaaa###a###aaaaaaa####.",
"###.#a#aaaaaaaaaaaaaaaaaaaaa#..#",
"....##aaaaaaaaaaaaaaaaaaaaa###..",
"..##..##aaaaaaaaaaaaaaaaaa#...#.",
".#......##aa####aa####aa##......",
"..........##############........",
"............##########..........",
"............####.####...........",
".............##...###...........",
".............#.....#............",
"................................"};
