/* XPM */
static char *undo[]={
"16 16 3 1",
"# c #000080",
"a c #808080",
". c None",
"................",
"................",
"................",
"................",
"........####a...",
"..#...##....#a..",
"..##.#.......#..",
"..###........#..",
"..####.......#..",
"..#####.....#a..",
"...........a#...",
"................",
"................",
"................",
"................",
"................"};
